<?xml version="1.0" encoding="utf-8"?>
<!-- Generator: Adobe Illustrator 25.1.0, SVG Export Plug-In . SVG Version: 6.00 Build 0)  -->
<svg version="1.1" xmlns="http://www.w3.org/2000/svg" xmlns:xlink="http://www.w3.org/1999/xlink" x="0px" y="0px"
	 viewBox="0 0 375.69 140.2" style="enable-background:new 0 0 375.69 140.2;" xml:space="preserve">
<style type="text/css">
	.st0{fill:none;}
</style>
<g id="Calque_1">
	<g>
		<path d="M323.37,80.03l3.49-7.69h0.05l3.54,7.69H323.37z M312.09,91.21h5.12c0.93,0,1.45-0.56,1.68-1.12l1.68-3.73h12.67
			l1.68,3.68c0.42,0.89,0.79,1.17,1.63,1.17h5.17c0.7,0,1.07-0.61,0.79-1.21l-14.58-31.36c-0.14-0.28-0.47-0.51-0.79-0.51h-0.47
			c-0.33,0-0.65,0.23-0.79,0.51L311.3,90C311.02,90.6,311.39,91.21,312.09,91.21 M291.59,72.53v-7.27h6.9
			c1.91,0,3.54,1.58,3.54,3.54s-1.63,3.73-3.54,3.73H291.59z M284.28,90.33c0,0.47,0.37,0.89,0.88,0.89h5.55
			c0.47,0,0.88-0.42,0.88-0.89V78.44h3.22l6.2,12.35c0.09,0.19,0.37,0.42,0.75,0.42h6.2c0.79,0,1.12-0.75,0.79-1.35l-6.38-11.84
			c4.05-1.63,6.9-5.08,6.9-9.37c0-5.54-4.57-10.06-10.16-10.06h-13.93c-0.51,0-0.88,0.42-0.88,0.89V90.33z M254.59,74.95
			c0-5.13,4.19-9.37,9.27-9.37c5.13,0,9.32,4.24,9.32,9.37c0,5.08-4.19,9.27-9.32,9.27C258.79,84.22,254.59,80.03,254.59,74.95
			 M247.14,74.95c0,9.32,7.41,16.73,16.73,16.73c9.32,0,16.77-7.41,16.77-16.73c0-9.32-7.45-16.82-16.77-16.82
			C254.55,58.13,247.14,65.63,247.14,74.95 M222.54,84.31V65.44h4.47c5.26,0,9.09,4.15,9.09,9.41c0,5.31-3.82,9.46-9.09,9.46H222.54
			z M215.27,90.33c0,0.47,0.37,0.89,0.84,0.89h11.37c8.99,0,16.35-7.32,16.35-16.36c0-8.95-7.36-16.26-16.35-16.26h-11.37
			c-0.47,0-0.84,0.42-0.84,0.89V90.33z M200.89,90.33c0,0.47,0.42,0.89,0.89,0.89h5.59c0.47,0,0.88-0.42,0.88-0.89V59.48
			c0-0.47-0.42-0.89-0.88-0.89h-5.59c-0.47,0-0.89,0.42-0.89,0.89V90.33z M173.73,88.09c1.07,1.07,4.43,3.59,10.48,3.59
			c6.85,0,11-4.85,11-9.64c0-6.34-5.78-9.18-9.41-10.62c-3.68-1.49-5.08-2.79-5.08-4.52c0-1.26,1.26-2.38,2.94-2.38
			c2.84,0,6.24,2.56,6.66,2.8c0.42,0.33,1.26-0.09,1.58-0.61l2.38-3.59c0.19-0.33,0.28-1.16-0.28-1.49
			c-1.4-1.02-5.12-3.49-9.97-3.49c-7.18,0-10.76,4.66-10.76,9.27c0,5.59,5.03,8.71,9.04,10.3c3.17,1.26,4.8,2.75,4.8,4.71
			c0,1.63-1.35,2.79-3.21,2.79c-3.08,0-6.43-2.47-6.62-2.56c-0.33-0.23-1.21-0.33-1.58,0.28l-2.19,3.87
			C173.12,87.44,173.26,87.62,173.73,88.09 M141.3,78.72c0,7.08,5.92,12.95,13.23,12.95c7.36,0,13.33-5.87,13.33-12.95V59.48
			c0-0.47-0.42-0.89-0.89-0.89h-5.73c-0.51,0-0.89,0.42-0.89,0.89v18.87c0,3.26-2.47,5.87-5.82,5.87c-3.31,0-5.73-2.61-5.73-5.87
			V59.48c0-0.47-0.37-0.89-0.88-0.89h-5.73c-0.46,0-0.89,0.42-0.89,0.89V78.72z M100.8,90.19c-0.09,0.61,0.33,1.03,0.88,1.03h5.5
			c0.47,0,0.84-0.37,0.89-0.75l2.05-14.4h0.09l7.88,15.1c0.14,0.28,0.51,0.51,0.79,0.51h0.84c0.23,0,0.65-0.23,0.79-0.51l7.83-15.1
			h0.09l2.1,14.4c0.05,0.37,0.47,0.75,0.89,0.75h5.5c0.56,0,0.98-0.42,0.88-1.03l-5.26-31.31c-0.05-0.42-0.47-0.74-0.84-0.74h-0.75
			c-0.23,0-0.65,0.19-0.79,0.47l-10.81,20.13h-0.09l-10.81-20.13c-0.14-0.28-0.56-0.47-0.79-0.47h-0.75c-0.37,0-0.79,0.33-0.84,0.74
			L100.8,90.19z"/>
		<g>
			<path d="M108.9,41.52c0-1.79-0.03-2.06-1.1-2.14l-0.42-0.03c-0.1-0.07-0.07-0.37,0.03-0.42c0.95,0.03,1.53,0.05,2.21,0.05
				c0.66,0,1.24-0.02,2.09-0.05c0.1,0.05,0.14,0.36,0.03,0.42l-0.41,0.03c-1,0.08-1.04,0.36-1.04,2.14v5.92
				c0,1.07,0.05,1.51,0.36,1.84c0.19,0.19,0.51,0.39,1.85,0.39c1.44,0,1.8-0.07,2.07-0.22c0.34-0.2,0.78-0.82,1.12-1.68
				c0.1-0.08,0.42-0.02,0.42,0.1c0,0.19-0.48,1.92-0.71,2.38c-0.87-0.03-2.48-0.05-4.23-0.05h-1.56c-0.71,0-1.26,0.02-2.21,0.05
				c-0.1-0.05-0.14-0.32-0.03-0.42l0.51-0.05c0.99-0.1,1.02-0.34,1.02-2.12V41.52z"/>
			<path d="M122.26,41.52c0-1.77-0.03-2.02-1.04-2.14l-0.27-0.03c-0.1-0.07-0.07-0.37,0.03-0.42c0.73,0.03,1.31,0.05,2.01,0.05h3.2
				c1.09,0,2.09,0,2.29-0.05c0.1,0.29,0.2,1.51,0.27,2.26c-0.07,0.1-0.34,0.14-0.42,0.03c-0.25-0.8-0.41-1.39-1.29-1.61
				c-0.36-0.08-0.9-0.1-1.65-0.1h-1.22c-0.51,0-0.51,0.03-0.51,0.68v3.4c0,0.48,0.05,0.48,0.56,0.48h0.99c0.71,0,1.24-0.03,1.44-0.1
				c0.2-0.07,0.32-0.17,0.41-0.59l0.14-0.7c0.08-0.1,0.37-0.1,0.44,0.02c0,0.41-0.07,1.07-0.07,1.72c0,0.61,0.07,1.26,0.07,1.63
				c-0.07,0.12-0.36,0.12-0.44,0.02l-0.15-0.66c-0.07-0.31-0.19-0.56-0.53-0.65c-0.24-0.07-0.65-0.08-1.31-0.08h-0.99
				c-0.51,0-0.56,0.02-0.56,0.46v2.4c0,0.9,0.05,1.48,0.32,1.77c0.2,0.2,0.56,0.39,2.06,0.39c1.31,0,1.8-0.07,2.18-0.25
				c0.31-0.17,0.77-0.76,1.21-1.65c0.12-0.08,0.36-0.03,0.42,0.12c-0.12,0.59-0.54,1.9-0.76,2.36c-1.53-0.03-3.04-0.05-4.56-0.05
				h-1.53c-0.73,0-1.31,0.02-2.31,0.05c-0.1-0.05-0.14-0.32-0.03-0.42l0.56-0.05c0.97-0.08,1.05-0.34,1.05-2.12V41.52z"/>
			<path d="M137.8,50.46c-1.43,0-2.33-0.44-2.65-0.63c-0.2-0.37-0.42-1.58-0.46-2.38c0.08-0.12,0.34-0.15,0.41-0.05
				c0.25,0.87,0.95,2.53,2.92,2.53c1.43,0,2.12-0.93,2.12-1.96c0-0.75-0.15-1.58-1.39-2.38l-1.61-1.05
				c-0.85-0.56-1.84-1.53-1.84-2.92c0-1.61,1.26-2.92,3.47-2.92c0.53,0,1.14,0.1,1.58,0.22c0.22,0.07,0.46,0.1,0.59,0.1
				c0.15,0.41,0.31,1.36,0.31,2.07c-0.07,0.1-0.34,0.15-0.42,0.05c-0.22-0.82-0.68-1.92-2.31-1.92c-1.67,0-2.02,1.1-2.02,1.89
				c0,0.99,0.82,1.7,1.45,2.09l1.36,0.85c1.07,0.66,2.12,1.65,2.12,3.26C141.42,49.18,140.01,50.46,137.8,50.46z"/>
			<path d="M156.31,41.52c0-1.77-0.03-2.02-1.04-2.14L155,39.34c-0.1-0.07-0.07-0.37,0.03-0.42c0.73,0.03,1.31,0.05,2.01,0.05h3.2
				c1.09,0,2.09,0,2.29-0.05c0.1,0.29,0.2,1.51,0.27,2.26c-0.07,0.1-0.34,0.14-0.42,0.03c-0.25-0.8-0.41-1.39-1.29-1.61
				c-0.36-0.08-0.9-0.1-1.65-0.1h-1.22c-0.51,0-0.51,0.03-0.51,0.68v3.4c0,0.48,0.05,0.48,0.56,0.48h0.99c0.71,0,1.24-0.03,1.44-0.1
				c0.2-0.07,0.32-0.17,0.41-0.59l0.14-0.7c0.08-0.1,0.37-0.1,0.44,0.02c0,0.41-0.07,1.07-0.07,1.72c0,0.61,0.07,1.26,0.07,1.63
				c-0.07,0.12-0.36,0.12-0.44,0.02l-0.15-0.66c-0.07-0.31-0.19-0.56-0.53-0.65c-0.24-0.07-0.65-0.08-1.31-0.08h-0.99
				c-0.51,0-0.56,0.02-0.56,0.46v2.4c0,0.9,0.05,1.48,0.32,1.77c0.2,0.2,0.56,0.39,2.06,0.39c1.31,0,1.8-0.07,2.18-0.25
				c0.31-0.17,0.77-0.76,1.21-1.65c0.12-0.08,0.36-0.03,0.42,0.12c-0.12,0.59-0.54,1.9-0.76,2.36c-1.53-0.03-3.04-0.05-4.56-0.05
				h-1.53c-0.73,0-1.31,0.02-2.31,0.05c-0.1-0.05-0.14-0.32-0.03-0.42l0.56-0.05c0.97-0.08,1.05-0.34,1.05-2.12V41.52z
				 M158.48,38.19c-0.12-0.03-0.22-0.22-0.17-0.41l2.4-1.95c0.2-0.14,0.36-0.22,0.46-0.22c0.12,0,0.34,0.12,0.48,0.39
				c0.17,0.32,0.17,0.56,0.12,0.7c-0.07,0.08-0.19,0.17-0.44,0.27L158.48,38.19z"/>
			<path d="M170.21,41.18c0-1.19-0.08-1.55-0.8-1.65l-0.37-0.05c-0.14-0.08-0.15-0.36,0.02-0.42c1.44-0.08,2.82-0.14,4.27-0.14
				c1.43,0,2.63,0.1,3.74,0.51c2.29,0.83,3.45,2.77,3.45,5.01c0,2.16-1.04,4.01-2.97,5.07c-1.1,0.59-2.5,0.82-3.81,0.82
				c-1.09,0-2.18-0.14-2.77-0.14c-0.71,0-1.33,0.02-2.12,0.05c-0.1-0.05-0.14-0.32-0.03-0.42l0.39-0.05
				c0.99-0.14,1.02-0.34,1.02-2.12V41.18z M171.61,47.25c0,0.9,0.05,1.44,0.34,1.85c0.37,0.53,1.02,0.7,2.09,0.7
				c3.3,0,4.78-2.16,4.78-5.32c0-1.87-0.9-5.03-5.35-5.03c-1,0-1.55,0.14-1.68,0.24c-0.14,0.1-0.17,0.53-0.17,1.29V47.25z"/>
			<path d="M187.44,41.55c0-1.8-0.03-2.09-1.04-2.18l-0.42-0.03c-0.1-0.07-0.07-0.37,0.03-0.42c0.85,0.03,1.43,0.05,2.14,0.05
				c0.68,0,1.26-0.02,2.11-0.05c0.1,0.05,0.14,0.36,0.03,0.42l-0.42,0.03c-1,0.08-1.04,0.37-1.04,2.18v6.05
				c0,1.8,0.03,2.04,1.04,2.16l0.42,0.05c0.1,0.07,0.07,0.37-0.03,0.42c-0.85-0.03-1.43-0.05-2.11-0.05c-0.71,0-1.29,0.02-2.14,0.05
				c-0.1-0.05-0.14-0.32-0.03-0.42l0.42-0.05c1-0.12,1.04-0.36,1.04-2.16V41.55z"/>
			<path d="M201.22,47.64c0,1.79,0.03,2.04,1.02,2.12l0.54,0.05c0.1,0.07,0.07,0.37-0.03,0.42c-0.97-0.03-1.55-0.05-2.23-0.05
				c-0.68,0-1.27,0.02-2.36,0.05c-0.1-0.05-0.14-0.34,0-0.42l0.61-0.05c0.97-0.08,1.05-0.34,1.05-2.12v-7.6c0-0.53,0-0.54-0.51-0.54
				h-0.94c-0.73,0-1.67,0.03-2.09,0.43c-0.41,0.37-0.58,0.75-0.76,1.17c-0.14,0.1-0.37,0.02-0.44-0.12
				c0.27-0.76,0.53-1.85,0.65-2.53c0.05-0.03,0.27-0.05,0.32,0c0.1,0.54,0.66,0.53,1.44,0.53h6.88c0.92,0,1.07-0.03,1.33-0.48
				c0.09-0.03,0.27-0.02,0.31,0.05c-0.19,0.7-0.31,2.07-0.25,2.58c-0.07,0.14-0.36,0.14-0.44,0.03c-0.05-0.42-0.17-1.05-0.42-1.24
				c-0.39-0.29-1.04-0.43-1.97-0.43h-1.21c-0.51,0-0.49,0.02-0.49,0.58V47.64z"/>
			<path d="M212.34,41.55c0-1.8-0.03-2.09-1.04-2.18l-0.42-0.03c-0.1-0.07-0.07-0.37,0.03-0.42c0.85,0.03,1.43,0.05,2.14,0.05
				c0.68,0,1.26-0.02,2.11-0.05c0.1,0.05,0.14,0.36,0.03,0.42l-0.43,0.03c-1,0.08-1.04,0.37-1.04,2.18v6.05
				c0,1.8,0.03,2.04,1.04,2.16l0.43,0.05c0.1,0.07,0.07,0.37-0.03,0.42c-0.85-0.03-1.43-0.05-2.11-0.05c-0.71,0-1.29,0.02-2.14,0.05
				c-0.1-0.05-0.14-0.32-0.03-0.42l0.42-0.05c1-0.12,1.04-0.36,1.04-2.16V41.55z"/>
			<path d="M220.65,44.7c0-3.4,2.55-6,6.05-6c3.93,0,5.9,2.84,5.9,5.83c0,3.43-2.62,5.93-5.9,5.93
				C222.93,50.46,220.65,47.76,220.65,44.7z M230.9,45.05c0-2.8-1.24-5.83-4.49-5.83c-1.77,0-4.06,1.21-4.06,4.93
				c0,2.52,1.22,5.78,4.57,5.78C228.97,49.93,230.9,48.4,230.9,45.05z"/>
			<path d="M248.69,47.3c0,0.51,0,2.53,0.05,2.97c-0.03,0.1-0.14,0.19-0.32,0.19c-0.2-0.29-0.7-0.88-2.18-2.57l-3.94-4.49
				c-0.46-0.53-1.62-1.92-1.97-2.29h-0.03c-0.07,0.2-0.08,0.59-0.08,1.1v3.71c0,0.8,0.02,3.01,0.31,3.52
				c0.1,0.19,0.44,0.29,0.87,0.32l0.53,0.05c0.1,0.14,0.08,0.34-0.03,0.42c-0.76-0.03-1.36-0.05-1.99-0.05
				c-0.71,0-1.17,0.02-1.77,0.05c-0.12-0.08-0.14-0.32-0.03-0.42l0.46-0.05c0.39-0.05,0.66-0.15,0.75-0.34
				c0.24-0.61,0.22-2.69,0.22-3.5v-4.91c0-0.48-0.02-0.83-0.37-1.22c-0.24-0.24-0.65-0.36-1.05-0.41l-0.29-0.03
				c-0.1-0.1-0.1-0.36,0.03-0.42c0.71,0.05,1.61,0.05,1.92,0.05c0.27,0,0.56-0.02,0.78-0.05c0.34,0.87,2.35,3.11,2.91,3.74
				l1.65,1.85c1.17,1.31,2.01,2.26,2.8,3.08h0.03c0.07-0.08,0.07-0.36,0.07-0.71v-3.64c0-0.8-0.02-3.01-0.34-3.52
				c-0.1-0.15-0.37-0.25-1.05-0.34l-0.29-0.03c-0.12-0.1-0.1-0.37,0.03-0.42c0.78,0.03,1.36,0.05,2.01,0.05
				c0.73,0,1.17-0.02,1.75-0.05c0.14,0.08,0.14,0.32,0.03,0.42l-0.24,0.03c-0.54,0.08-0.88,0.22-0.95,0.36
				c-0.29,0.61-0.25,2.72-0.25,3.5V47.3z"/>
			<path d="M258.46,50.46c-1.43,0-2.33-0.44-2.65-0.63c-0.2-0.37-0.42-1.58-0.46-2.38c0.08-0.12,0.34-0.15,0.41-0.05
				c0.25,0.87,0.95,2.53,2.92,2.53c1.43,0,2.12-0.93,2.12-1.96c0-0.75-0.15-1.58-1.39-2.38l-1.62-1.05
				c-0.85-0.56-1.84-1.53-1.84-2.92c0-1.61,1.26-2.92,3.47-2.92c0.53,0,1.14,0.1,1.58,0.22c0.22,0.07,0.46,0.1,0.59,0.1
				c0.15,0.41,0.31,1.36,0.31,2.07c-0.07,0.1-0.34,0.15-0.42,0.05c-0.22-0.82-0.68-1.92-2.31-1.92c-1.67,0-2.02,1.1-2.02,1.89
				c0,0.99,0.82,1.7,1.44,2.09l1.36,0.85c1.07,0.66,2.12,1.65,2.12,3.26C262.08,49.18,260.67,50.46,258.46,50.46z"/>
		</g>
	</g>
</g>
<g id="Calque_2">
	<path d="M56.41,110.03c0.11-0.47,0.59-0.35,0.84-0.22c0.26,0.13,1.76,0.59,3.01,0.06c1.26-0.54,1.9-1.12,2.22-1.22
		c0.32-0.1,0.53-0.23,0.99,0.12c0.46,0.35,1.11,0.74,1.51,0.74c0.4,0,0.93-0.16,1.65-0.68c0.73-0.52,1.22-0.28,1.63-0.08
		c0.41,0.2,2.43,1.03,3.43,1c0.63-0.02,0.91-0.16,1.11-0.25c0.2-0.08,0.55-0.01,0.56,0.3c0.01,0.32-0.45,1.02-1.45,0.91
		c-1.01-0.1-1.44-0.26-1.91-0.2c-0.47,0.06-1.44,1.07-2.44,1.44c-0.53,0.2-0.53,0.49-0.45,0.63c0.08,0.14,0.33,0.31,0.89,0
		c0.56-0.3,1.49-0.9,1.67-1.03c0.18-0.13,0.37-0.06,0.42,0.01c0.06,0.07,0.09,0.33-0.07,0.47c-0.16,0.14-2.06,2.08-5.21,2.08
		c-3.14,0-5.01-1.71-5.94-2.61c-0.35-0.34-0.84-0.38-1.15-0.42C57.43,111.04,56.23,110.8,56.41,110.03"/>
	<g>
		<polygon class="st0" points="72.58,64.81 72.59,64.8 72.58,64.8 		"/>
		<path class="st0" d="M57.31,64.8C57.32,64.8,57.32,64.8,57.31,64.8c0-0.01-0.01-0.01-0.02-0.02C57.3,64.79,57.31,64.8,57.31,64.8z
			"/>
		<path class="st0" d="M53.35,82.99c-0.37-0.07-0.42,0.12-0.32,0.3c0.11,0.18,0.86,0.76,1.04,0.93c0.23,0.22,0.72,0.54,0.56,0.93
			c-0.23,0.58-1.06,1.09-1.46,1.18c-0.4,0.09-1.76,0.33-2.66-0.72c-1.01-1.19-0.58-2.22-0.55-2.34c0.03-0.12,0.09-0.51-0.35-0.42
			c-1.43,0.29-2.87,1.2-2.83,1.85c0.02,0.33,0.04,0.77,1.37,1.95c1.55,1.38,5.74,0.6,6.65,0.32c0.91-0.28,1.18-0.32,1.46-0.3
			c0.28,0.02,0.67,0.14,0.88,0.14c0.21,0,0.33,0.02,0.23-0.58C56.93,83.67,53.72,83.06,53.35,82.99z"/>
		<path class="st0" d="M79.08,82.71c-0.67,0.04-0.48,0.21-0.4,0.49c0.08,0.28,0.88,0.79,1.28,1.07c0.4,0.28,0.7,0.48,0.3,1.14
			c-0.4,0.67-1.87,1.46-3.26,0.74c-1.39-0.72-1.35-2.18-1.35-2.43c0-0.25-0.02-0.58-0.58-0.3c-2.79,1.71-2.79,3.26-2.63,3.35
			c0.2,0.14,0.27,0.05,0.84-0.08c0.31-0.06,0.51-0.09,0.92-0.02c0.4,0.07,1.55,0.39,2.06,0.51c0.51,0.12,2.34,0.51,3.98,0.16
			c1.64-0.35,2.38-1.6,2.66-2.01c0.28-0.4,0.33-0.7,0-1.13C82.01,83.13,79.75,82.68,79.08,82.71z"/>
	</g>
	<g>
		<path d="M96.36,58.47c-0.08,0-0.26,0.05-0.28,0.06c-8.49,2-21.25,8.38-21.86,8.62c0,0,0-0.01-0.01-0.01
			c-0.05,0.01-0.1,0.01-0.14-0.04c-0.04-0.05-0.03-0.13,0.02-0.17c0,0,0-0.01,0.01-0.01c0,0,0,0,0.01,0c0,0,0.01,0,0.01,0
			c0.03-0.02,0.05-0.04,0.09-0.07c7.64-4.91,14.7-8.11,15.44-8.42c0.74-0.32,0.76-0.46,0.83-0.81c0.07-0.35,1.3-6.56,1.38-6.94
			l0-0.01c0-0.01,0-0.02,0-0.04c0-0.13-0.1-0.23-0.23-0.23c-0.04,0-0.07,0.01-0.1,0.02l-0.01,0.01
			c-11.03,7.13-18.14,13.74-18.8,14.3c-0.04,0.04-0.07,0.05-0.1,0.08c0,0,0,0,0,0s0,0,0,0c-0.01,0.01-0.01,0.01-0.02,0.02
			c0,0,0-0.01-0.01-0.01c-0.04,0.01-0.08,0.01-0.11-0.03c-0.02-0.03-0.02-0.07,0-0.1c0,0-0.01-0.01-0.01-0.01
			c0.03-0.05,0.06-0.1,0.06-0.1c2.43-3.57,9.04-9.77,9.57-10.19c0.53-0.42,0.81-0.79,0.84-1.18c0.03-0.39,1.13-7.65,1.2-8.24
			c0.01-0.05,0.01-0.09,0.01-0.13l0-0.01c0-0.13-0.1-0.23-0.23-0.23c-0.05,0-0.1,0.02-0.14,0.05l0,0c-0.06,0.04-0.12,0.1-0.18,0.17
			c-5.98,6.65-12.3,17.44-12.81,18.16c-0.05,0.07-0.09,0.13-0.14,0.18c0,0-0.01,0-0.01-0.01c-0.02,0.03-0.05,0.05-0.09,0.05
			c-0.07,0-0.12-0.05-0.12-0.12c0-0.02,0.01-0.03,0.02-0.05c0,0,0,0-0.01,0c0.02-0.06,0.05-0.14,0.08-0.21
			c0.26-0.65,4.36-9.45,4.54-9.8c0.18-0.35,0.37-0.79,0.4-1.28c0.04-0.49,0.74-9.95,0.74-9.95c0-0.09-0.08-0.17-0.17-0.17
			c-0.07,0-0.13,0.04-0.15,0.1c0,0-7.48,19.51-7.6,19.9c-0.04,0.11-0.08,0.24-0.13,0.35c0,0-0.01,0-0.01-0.01
			c-0.03,0.08-0.09,0.14-0.17,0.14c-0.11,0-0.2-0.09-0.2-0.2c0-0.02,0.01-0.03,0.02-0.04c0,0-0.01,0-0.01,0
			c0.12-0.83,1.2-8.06,1.2-8.54c0-0.49,0.3-12.55,0.3-12.55c0-0.09-0.08-0.17-0.17-0.17c-0.08,0-0.15,0.06-0.16,0.13
			c0,0-3.28,18.3-3.7,20.75c0,0,0,0,0,0c-0.01,0.14-0.12,0.25-0.26,0.26c-0.14-0.01-0.25-0.12-0.26-0.26c0,0,0,0,0,0
			c-0.42-2.44-3.7-20.75-3.7-20.75c-0.02-0.07-0.08-0.13-0.16-0.13c-0.09,0-0.17,0.08-0.17,0.17c0,0,0.3,12.05,0.3,12.55
			c0,0.48,1.08,7.71,1.2,8.54c0,0-0.01,0-0.01,0c0,0.02,0.02,0.03,0.02,0.04c0,0.11-0.09,0.2-0.2,0.2c-0.09,0-0.15-0.06-0.17-0.14
			c0,0-0.01,0-0.01,0.01c-0.05-0.12-0.1-0.24-0.13-0.35c-0.12-0.39-7.6-19.9-7.6-19.9c-0.03-0.06-0.09-0.1-0.15-0.1
			c-0.09,0-0.17,0.08-0.17,0.17c0,0,0.71,9.46,0.74,9.95c0.03,0.49,0.23,0.93,0.4,1.28c0.18,0.35,4.27,9.15,4.54,9.8
			c0.03,0.08,0.06,0.15,0.08,0.21c0,0,0,0-0.01,0c0.01,0.02,0.02,0.03,0.02,0.05c0,0.07-0.05,0.12-0.12,0.12
			c-0.04,0-0.07-0.02-0.09-0.05c0,0-0.01,0-0.01,0.01c-0.04-0.05-0.08-0.11-0.14-0.18c-0.51-0.72-6.83-11.51-12.81-18.16
			c-0.06-0.07-0.12-0.12-0.18-0.17l0,0c-0.04-0.03-0.09-0.05-0.14-0.05c-0.13,0-0.23,0.1-0.23,0.23l0,0.01c0,0.04,0,0.08,0.01,0.13
			c0.07,0.58,1.16,7.85,1.2,8.24c0.04,0.39,0.32,0.76,0.84,1.18c0.53,0.42,7.14,6.62,9.57,10.19c0,0,0.03,0.04,0.06,0.1
			c0,0-0.01,0.01-0.01,0.01c0.02,0.03,0.02,0.07,0,0.1c-0.03,0.03-0.07,0.04-0.11,0.03c0,0,0,0.01-0.01,0.01
			c-0.01,0-0.01-0.01-0.02-0.02c0,0,0,0,0,0s0,0,0,0c-0.03-0.03-0.06-0.04-0.1-0.08c-0.66-0.55-7.77-7.17-18.8-14.3l-0.01-0.01
			c-0.03-0.02-0.07-0.02-0.1-0.02c-0.13,0-0.23,0.1-0.23,0.23c0,0.01,0,0.03,0,0.04l0,0.01c0.08,0.38,1.31,6.59,1.38,6.94
			c0.07,0.35,0.09,0.49,0.83,0.81c0.74,0.32,7.8,3.51,15.44,8.42c0.04,0.03,0.06,0.05,0.09,0.07c0,0,0.01,0,0.01,0c0,0,0,0,0.01,0
			c0,0,0,0.01,0.01,0.01c0.05,0.05,0.06,0.12,0.02,0.17c-0.03,0.04-0.09,0.05-0.14,0.04c0,0,0,0.01-0.01,0.01
			c-0.61-0.24-13.37-6.62-21.86-8.62c-0.02-0.01-0.21-0.06-0.28-0.06c-0.26,0-0.48,0.21-0.48,0.48c0,0.37,5.23,31.05,5.23,31.05
			c0.11,0.7,0.15,1.1,0.74,1.25c0.57,0.15,13.66,3.3,22.67,11.02c0.71,0.61,1.97,1.25,3.19,1.25h0.13c1.22,0,2.48-0.64,3.19-1.25
			c9.01-7.71,22.09-10.87,22.67-11.02c0.59-0.15,0.63-0.55,0.74-1.25c0,0,5.23-30.68,5.23-31.05
			C96.84,58.68,96.63,58.47,96.36,58.47z M57.15,86.81c-0.21,0-0.6-0.12-0.88-0.14c-0.28-0.02-0.55,0.02-1.46,0.3
			c-0.92,0.28-5.1,1.06-6.65-0.32c-1.33-1.19-1.35-1.62-1.37-1.95c-0.03-0.65,1.4-1.56,2.83-1.85c0.44-0.09,0.39,0.3,0.35,0.42
			c-0.04,0.12-0.47,1.15,0.55,2.34c0.9,1.06,2.25,0.81,2.66,0.72c0.4-0.09,1.23-0.6,1.46-1.18c0.16-0.39-0.33-0.71-0.56-0.93
			c-0.18-0.17-0.93-0.76-1.04-0.93c-0.11-0.18-0.05-0.37,0.32-0.3c0.37,0.07,3.58,0.68,4.03,3.24
			C57.48,86.83,57.36,86.81,57.15,86.81z M82.88,85.35c-0.28,0.4-1.02,1.65-2.66,2.01c-1.64,0.35-3.47-0.04-3.98-0.16
			c-0.51-0.12-1.65-0.44-2.06-0.51c-0.4-0.07-0.6-0.04-0.92,0.02c-0.57,0.12-0.64,0.21-0.84,0.08c-0.16-0.09-0.16-1.65,2.63-3.35
			c0.56-0.28,0.58,0.05,0.58,0.3c0,0.25-0.03,1.71,1.35,2.43c1.39,0.72,2.85-0.07,3.26-0.74c0.4-0.67,0.11-0.86-0.3-1.14
			c-0.4-0.28-1.21-0.79-1.28-1.07c-0.08-0.28-0.26-0.46,0.4-0.49c0.67-0.03,2.93,0.42,3.8,1.51C83.21,84.64,83.16,84.94,82.88,85.35
			z"/>
	</g>
</g>
</svg>
