<?xml version="1.0" encoding="utf-8"?>
<!-- Generator: Adobe Illustrator 25.1.0, SVG Export Plug-In . SVG Version: 6.00 Build 0)  -->
<svg version="1.1" id="Calque_1" xmlns="http://www.w3.org/2000/svg" xmlns:xlink="http://www.w3.org/1999/xlink" x="0px" y="0px"
	 viewBox="0 0 305.99 306.28" style="enable-background:new 0 0 305.99 306.28;" xml:space="preserve">
<style type="text/css">
	.st0{fill:#1D1D1B;}
	.st1{fill:none;}
</style>
<g>
	<path class="st0" d="M78.25,224.91c0-1.74-0.03-2-1.08-2.09l-0.41-0.03c-0.1-0.07-0.07-0.36,0.03-0.41
		c0.93,0.03,1.49,0.05,2.15,0.05c0.65,0,1.21-0.02,2.04-0.05c0.1,0.05,0.13,0.35,0.03,0.41l-0.4,0.03
		c-0.98,0.08-1.01,0.35-1.01,2.09v5.76c0,1.04,0.05,1.47,0.35,1.79c0.18,0.18,0.5,0.38,1.8,0.38c1.41,0,1.75-0.07,2.02-0.21
		c0.33-0.2,0.76-0.79,1.09-1.64c0.1-0.08,0.41-0.02,0.41,0.1c0,0.18-0.46,1.87-0.7,2.32c-0.84-0.03-2.42-0.05-4.12-0.05h-1.52
		c-0.7,0-1.23,0.02-2.15,0.05c-0.1-0.05-0.13-0.31-0.03-0.41l0.5-0.05c0.96-0.1,0.99-0.33,0.99-2.07V224.91z"/>
	<path class="st0" d="M91.27,224.91c0-1.72-0.03-1.97-1.01-2.09l-0.27-0.03c-0.1-0.07-0.07-0.36,0.03-0.41
		c0.71,0.03,1.27,0.05,1.95,0.05h3.11c1.06,0,2.04,0,2.24-0.05c0.1,0.28,0.2,1.47,0.26,2.2c-0.07,0.1-0.33,0.13-0.41,0.03
		c-0.25-0.78-0.4-1.36-1.26-1.57c-0.35-0.08-0.88-0.1-1.61-0.1h-1.19c-0.5,0-0.5,0.03-0.5,0.66v3.31c0,0.46,0.05,0.46,0.55,0.46
		h0.96c0.7,0,1.21-0.03,1.41-0.1s0.31-0.17,0.4-0.58l0.13-0.68c0.08-0.1,0.36-0.1,0.43,0.02c0,0.4-0.07,1.04-0.07,1.67
		c0,0.6,0.07,1.23,0.07,1.59c-0.07,0.12-0.35,0.12-0.43,0.02l-0.15-0.65c-0.07-0.3-0.18-0.55-0.51-0.63
		c-0.23-0.07-0.63-0.08-1.27-0.08h-0.96c-0.5,0-0.55,0.02-0.55,0.45v2.33c0,0.88,0.05,1.44,0.31,1.72c0.2,0.2,0.55,0.38,2,0.38
		c1.27,0,1.75-0.07,2.12-0.25c0.3-0.17,0.75-0.75,1.18-1.61c0.12-0.08,0.35-0.03,0.41,0.12c-0.12,0.58-0.53,1.85-0.75,2.3
		c-1.49-0.03-2.96-0.05-4.44-0.05h-1.49c-0.71,0-1.27,0.02-2.25,0.05c-0.1-0.05-0.13-0.31-0.03-0.41l0.55-0.05
		c0.94-0.08,1.03-0.33,1.03-2.07V224.91z"/>
	<path class="st0" d="M106.39,233.61c-1.39,0-2.27-0.43-2.58-0.61c-0.2-0.36-0.41-1.54-0.45-2.32c0.08-0.12,0.33-0.15,0.4-0.05
		c0.25,0.84,0.93,2.47,2.85,2.47c1.39,0,2.07-0.91,2.07-1.9c0-0.73-0.15-1.54-1.36-2.32l-1.57-1.03c-0.83-0.55-1.79-1.49-1.79-2.85
		c0-1.57,1.23-2.85,3.38-2.85c0.51,0,1.11,0.1,1.54,0.21c0.22,0.07,0.45,0.1,0.58,0.1c0.15,0.4,0.3,1.32,0.3,2.02
		c-0.07,0.1-0.33,0.15-0.41,0.05c-0.21-0.79-0.66-1.87-2.25-1.87c-1.62,0-1.97,1.08-1.97,1.84c0,0.96,0.79,1.66,1.41,2.04l1.32,0.83
		c1.04,0.65,2.07,1.61,2.07,3.18C109.92,232.37,108.54,233.61,106.39,233.61z"/>
	<path class="st0" d="M124.43,224.91c0-1.72-0.03-1.97-1.01-2.09l-0.27-0.03c-0.1-0.07-0.07-0.36,0.03-0.41
		c0.71,0.03,1.27,0.05,1.95,0.05h3.11c1.06,0,2.04,0,2.24-0.05c0.1,0.28,0.2,1.47,0.26,2.2c-0.07,0.1-0.33,0.13-0.41,0.03
		c-0.25-0.78-0.4-1.36-1.26-1.57c-0.35-0.08-0.88-0.1-1.61-0.1h-1.19c-0.5,0-0.5,0.03-0.5,0.66v3.31c0,0.46,0.05,0.46,0.55,0.46
		h0.96c0.7,0,1.21-0.03,1.41-0.1s0.31-0.17,0.4-0.58l0.13-0.68c0.08-0.1,0.36-0.1,0.43,0.02c0,0.4-0.07,1.04-0.07,1.67
		c0,0.6,0.07,1.23,0.07,1.59c-0.07,0.12-0.35,0.12-0.43,0.02l-0.15-0.65c-0.07-0.3-0.18-0.55-0.51-0.63
		c-0.23-0.07-0.63-0.08-1.27-0.08h-0.96c-0.5,0-0.55,0.02-0.55,0.45v2.33c0,0.88,0.05,1.44,0.31,1.72c0.2,0.2,0.55,0.38,2,0.38
		c1.27,0,1.75-0.07,2.12-0.25c0.3-0.17,0.75-0.75,1.18-1.61c0.12-0.08,0.35-0.03,0.41,0.12c-0.12,0.58-0.53,1.85-0.75,2.3
		c-1.49-0.03-2.96-0.05-4.44-0.05h-1.49c-0.71,0-1.27,0.02-2.25,0.05c-0.1-0.05-0.13-0.31-0.03-0.41l0.55-0.05
		c0.94-0.08,1.03-0.33,1.03-2.07V224.91z M126.55,221.66c-0.12-0.03-0.22-0.21-0.17-0.4l2.33-1.9c0.2-0.13,0.35-0.22,0.45-0.22
		c0.12,0,0.33,0.12,0.46,0.38c0.17,0.31,0.17,0.55,0.12,0.68c-0.07,0.08-0.18,0.17-0.43,0.26L126.55,221.66z"/>
	<path class="st0" d="M137.96,224.58c0-1.16-0.08-1.51-0.78-1.61l-0.36-0.05c-0.13-0.08-0.15-0.35,0.02-0.41
		c1.41-0.08,2.75-0.13,4.16-0.13c1.39,0,2.57,0.1,3.64,0.5c2.24,0.81,3.36,2.7,3.36,4.88c0,2.1-1.01,3.91-2.9,4.93
		c-1.08,0.58-2.43,0.79-3.71,0.79c-1.06,0-2.12-0.13-2.7-0.13c-0.7,0-1.29,0.02-2.07,0.05c-0.1-0.05-0.13-0.31-0.03-0.41l0.38-0.05
		c0.96-0.13,0.99-0.33,0.99-2.07V224.58z M139.32,230.49c0,0.88,0.05,1.41,0.33,1.8c0.36,0.51,0.99,0.68,2.04,0.68
		c3.21,0,4.65-2.1,4.65-5.18c0-1.82-0.88-4.9-5.22-4.9c-0.98,0-1.51,0.13-1.64,0.23c-0.13,0.1-0.17,0.51-0.17,1.26V230.49z"/>
	<path class="st0" d="M154.76,224.94c0-1.75-0.03-2.04-1.01-2.12l-0.41-0.03c-0.1-0.07-0.07-0.36,0.03-0.41
		c0.83,0.03,1.39,0.05,2.09,0.05c0.66,0,1.23-0.02,2.05-0.05c0.1,0.05,0.13,0.35,0.03,0.41l-0.41,0.03
		c-0.98,0.08-1.01,0.36-1.01,2.12v5.89c0,1.75,0.03,1.99,1.01,2.1l0.41,0.05c0.1,0.07,0.07,0.36-0.03,0.41
		c-0.83-0.03-1.39-0.05-2.05-0.05c-0.7,0-1.26,0.02-2.09,0.05c-0.1-0.05-0.13-0.31-0.03-0.41l0.41-0.05
		c0.98-0.12,1.01-0.35,1.01-2.1V224.94z"/>
	<path class="st0" d="M168.19,230.87c0,1.74,0.03,1.99,0.99,2.07l0.53,0.05c0.1,0.07,0.07,0.36-0.03,0.41
		c-0.94-0.03-1.51-0.05-2.17-0.05c-0.66,0-1.24,0.02-2.3,0.05c-0.1-0.05-0.13-0.33,0-0.41l0.6-0.05c0.94-0.08,1.03-0.33,1.03-2.07
		v-7.4c0-0.51,0-0.53-0.5-0.53h-0.91c-0.71,0-1.62,0.03-2.04,0.41c-0.4,0.36-0.56,0.73-0.75,1.14c-0.13,0.1-0.36,0.02-0.43-0.12
		c0.27-0.74,0.51-1.8,0.63-2.47c0.05-0.03,0.26-0.05,0.31,0c0.1,0.53,0.65,0.51,1.41,0.51h6.71c0.89,0,1.04-0.03,1.29-0.46
		c0.08-0.03,0.26-0.02,0.3,0.05c-0.18,0.68-0.3,2.02-0.25,2.52c-0.07,0.13-0.35,0.13-0.43,0.03c-0.05-0.41-0.17-1.03-0.41-1.21
		c-0.38-0.28-1.01-0.41-1.92-0.41h-1.18c-0.5,0-0.48,0.02-0.48,0.56V230.87z"/>
	<path class="st0" d="M179.02,224.94c0-1.75-0.03-2.04-1.01-2.12l-0.41-0.03c-0.1-0.07-0.07-0.36,0.03-0.41
		c0.83,0.03,1.39,0.05,2.09,0.05c0.66,0,1.23-0.02,2.05-0.05c0.1,0.05,0.13,0.35,0.03,0.41l-0.41,0.03
		c-0.98,0.08-1.01,0.36-1.01,2.12v5.89c0,1.75,0.03,1.99,1.01,2.1l0.41,0.05c0.1,0.07,0.07,0.36-0.03,0.41
		c-0.83-0.03-1.39-0.05-2.05-0.05c-0.7,0-1.26,0.02-2.09,0.05c-0.1-0.05-0.13-0.31-0.03-0.41l0.41-0.05
		c0.98-0.12,1.01-0.35,1.01-2.1V224.94z"/>
	<path class="st0" d="M187.14,228c0-3.31,2.48-5.84,5.89-5.84c3.82,0,5.75,2.76,5.75,5.68c0,3.34-2.55,5.78-5.75,5.78
		C189.36,233.61,187.14,230.98,187.14,228z M197.12,228.35c0-2.73-1.21-5.68-4.37-5.68c-1.72,0-3.96,1.18-3.96,4.8
		c0,2.45,1.19,5.63,4.45,5.63C195.23,233.1,197.12,231.61,197.12,228.35z"/>
	<path class="st0" d="M214.43,230.54c0,0.5,0,2.47,0.05,2.9c-0.03,0.1-0.13,0.18-0.31,0.18c-0.2-0.28-0.68-0.86-2.12-2.5l-3.84-4.37
		c-0.45-0.51-1.57-1.87-1.92-2.24h-0.03c-0.07,0.2-0.08,0.58-0.08,1.08v3.61c0,0.78,0.02,2.93,0.3,3.43
		c0.1,0.18,0.43,0.28,0.84,0.31l0.51,0.05c0.1,0.13,0.08,0.33-0.03,0.41c-0.75-0.03-1.32-0.05-1.94-0.05c-0.7,0-1.14,0.02-1.72,0.05
		c-0.12-0.08-0.13-0.31-0.03-0.41l0.45-0.05c0.38-0.05,0.65-0.15,0.73-0.33c0.23-0.6,0.21-2.62,0.21-3.41v-4.79
		c0-0.46-0.02-0.81-0.36-1.19c-0.23-0.23-0.63-0.35-1.03-0.4l-0.28-0.03c-0.1-0.1-0.1-0.35,0.03-0.41c0.7,0.05,1.57,0.05,1.87,0.05
		c0.26,0,0.55-0.02,0.76-0.05c0.33,0.84,2.28,3.03,2.83,3.64l1.61,1.8c1.14,1.27,1.95,2.2,2.73,3h0.03c0.07-0.08,0.07-0.35,0.07-0.7
		v-3.54c0-0.78-0.02-2.93-0.33-3.43c-0.1-0.15-0.36-0.25-1.03-0.33l-0.28-0.03c-0.12-0.1-0.1-0.36,0.03-0.41
		c0.76,0.03,1.32,0.05,1.95,0.05c0.71,0,1.14-0.02,1.71-0.05c0.13,0.08,0.13,0.31,0.03,0.41l-0.23,0.03
		c-0.53,0.08-0.86,0.21-0.93,0.35c-0.28,0.6-0.25,2.65-0.25,3.41V230.54z"/>
	<path class="st0" d="M223.96,233.61c-1.39,0-2.27-0.43-2.58-0.61c-0.2-0.36-0.41-1.54-0.45-2.32c0.08-0.12,0.33-0.15,0.4-0.05
		c0.25,0.84,0.93,2.47,2.85,2.47c1.39,0,2.07-0.91,2.07-1.9c0-0.73-0.15-1.54-1.36-2.32l-1.57-1.03c-0.83-0.55-1.79-1.49-1.79-2.85
		c0-1.57,1.23-2.85,3.38-2.85c0.51,0,1.11,0.1,1.54,0.21c0.22,0.07,0.45,0.1,0.58,0.1c0.15,0.4,0.3,1.32,0.3,2.02
		c-0.07,0.1-0.33,0.15-0.41,0.05c-0.21-0.79-0.66-1.87-2.25-1.87c-1.62,0-1.97,1.08-1.97,1.84c0,0.96,0.79,1.66,1.41,2.04l1.32,0.83
		c1.04,0.65,2.07,1.61,2.07,3.18C227.48,232.37,226.11,233.61,223.96,233.61z"/>
</g>
<g>
</g>
<g>
	<path class="st0" d="M254.2,262.26l3.48-7.66h0.05l3.53,7.66H254.2z M242.96,273.41h5.11c0.93,0,1.44-0.56,1.67-1.11l1.67-3.72
		h12.63l1.67,3.67c0.42,0.88,0.79,1.16,1.63,1.16h5.16c0.7,0,1.07-0.6,0.79-1.21l-14.54-31.26c-0.14-0.28-0.46-0.51-0.79-0.51h-0.46
		c-0.32,0-0.65,0.23-0.79,0.51l-14.54,31.26C241.9,272.81,242.27,273.41,242.96,273.41 M222.53,254.79v-7.25h6.87
		c1.9,0,3.53,1.58,3.53,3.53c0,1.95-1.63,3.72-3.53,3.72H222.53z M215.24,272.53c0,0.46,0.37,0.88,0.88,0.88h5.53
		c0.46,0,0.88-0.42,0.88-0.88v-11.84h3.2l6.18,12.31c0.09,0.19,0.37,0.42,0.74,0.42h6.18c0.79,0,1.11-0.74,0.79-1.35l-6.36-11.8
		c4.04-1.63,6.87-5.06,6.87-9.34c0-5.53-4.55-10.03-10.13-10.03h-13.89c-0.51,0-0.88,0.42-0.88,0.88V272.53z M185.65,257.2
		c0-5.11,4.18-9.34,9.24-9.34c5.11,0,9.29,4.23,9.29,9.34c0,5.06-4.18,9.24-9.29,9.24C189.83,266.44,185.65,262.26,185.65,257.2
		 M178.22,257.2c0,9.29,7.38,16.67,16.67,16.67s16.72-7.39,16.72-16.67c0-9.29-7.43-16.77-16.72-16.77S178.22,247.91,178.22,257.2
		 M153.69,266.54v-18.81h4.46c5.25,0,9.06,4.13,9.06,9.38c0,5.3-3.81,9.43-9.06,9.43H153.69z M146.45,272.53
		c0,0.46,0.37,0.88,0.84,0.88h11.33c8.96,0,16.3-7.29,16.3-16.3c0-8.92-7.34-16.21-16.3-16.21h-11.33c-0.46,0-0.84,0.42-0.84,0.88
		V272.53z M132.12,272.53c0,0.46,0.42,0.88,0.88,0.88h5.57c0.46,0,0.88-0.42,0.88-0.88v-30.75c0-0.46-0.42-0.88-0.88-0.88H133
		c-0.46,0-0.88,0.42-0.88,0.88V272.53z M105.04,270.3c1.07,1.07,4.41,3.58,10.45,3.58c6.83,0,10.96-4.83,10.96-9.61
		c0-6.32-5.76-9.15-9.38-10.59c-3.67-1.49-5.06-2.79-5.06-4.5c0-1.25,1.25-2.37,2.93-2.37c2.83,0,6.22,2.55,6.64,2.79
		c0.42,0.32,1.25-0.09,1.58-0.6l2.37-3.58c0.19-0.32,0.28-1.16-0.28-1.49c-1.39-1.02-5.11-3.48-9.94-3.48
		c-7.15,0-10.73,4.64-10.73,9.24c0,5.57,5.02,8.69,9.01,10.27c3.16,1.25,4.78,2.74,4.78,4.69c0,1.63-1.35,2.79-3.2,2.79
		c-3.07,0-6.41-2.46-6.6-2.55c-0.32-0.23-1.21-0.33-1.58,0.28l-2.18,3.86C104.44,269.65,104.57,269.83,105.04,270.3 M72.71,260.96
		c0,7.06,5.9,12.91,13.19,12.91c7.34,0,13.28-5.85,13.28-12.91v-19.18c0-0.46-0.42-0.88-0.88-0.88h-5.71
		c-0.51,0-0.88,0.42-0.88,0.88v18.81c0,3.25-2.46,5.85-5.81,5.85c-3.3,0-5.71-2.6-5.71-5.85v-18.81c0-0.46-0.37-0.88-0.88-0.88H73.6
		c-0.46,0-0.88,0.42-0.88,0.88V260.96z M32.35,272.39c-0.09,0.6,0.32,1.02,0.88,1.02h5.48c0.46,0,0.84-0.37,0.88-0.74l2.04-14.35
		h0.09l7.85,15.05c0.14,0.28,0.51,0.51,0.79,0.51h0.84c0.23,0,0.65-0.23,0.79-0.51l7.8-15.05h0.09l2.09,14.35
		c0.05,0.37,0.46,0.74,0.88,0.74h5.48c0.56,0,0.97-0.42,0.88-1.02l-5.25-31.21c-0.05-0.42-0.46-0.74-0.84-0.74H62.4
		c-0.23,0-0.65,0.19-0.79,0.46l-10.78,20.06h-0.09L39.97,240.9c-0.14-0.28-0.56-0.46-0.79-0.46h-0.74c-0.37,0-0.79,0.32-0.84,0.74
		L32.35,272.39z"/>
</g>
<path class="st0" d="M133.67,196.62c0.26-1.06,1.34-0.8,1.93-0.51c0.59,0.29,4.02,1.35,6.88,0.13c2.86-1.23,4.33-2.56,5.06-2.78
	c0.74-0.22,1.2-0.54,2.25,0.27c1.04,0.8,2.54,1.69,3.45,1.69c0.91,0,2.11-0.37,3.78-1.55c1.66-1.18,2.78-0.64,3.72-0.19
	c0.94,0.45,5.54,2.36,7.82,2.27c1.45-0.05,2.09-0.37,2.54-0.56c0.45-0.19,1.26-0.03,1.29,0.7c0.03,0.72-1.02,2.33-3.32,2.09
	c-2.3-0.24-3.29-0.59-4.36-0.45c-1.07,0.13-3.3,2.43-5.57,3.29c-1.21,0.46-1.21,1.12-1.02,1.45c0.19,0.32,0.75,0.7,2.04,0
	c1.29-0.7,3.4-2.06,3.8-2.36c0.4-0.29,0.84-0.13,0.96,0.03c0.13,0.16,0.21,0.75-0.16,1.07c-0.37,0.32-4.71,4.75-11.89,4.75
	c-7.18,0-11.44-3.91-13.55-5.95c-0.8-0.78-1.93-0.86-2.62-0.96C136,198.92,133.24,198.39,133.67,196.62"/>
<g>
	<path class="st1" d="M170.57,93.41c0.01-0.01,0.02-0.01,0.03-0.02C170.59,93.4,170.57,93.4,170.57,93.41
		C170.57,93.41,170.57,93.41,170.57,93.41z"/>
	<path class="st1" d="M135.72,93.41c0.01-0.01,0.01-0.01,0.02-0.02c-0.02-0.01-0.04,0-0.06-0.02
		C135.69,93.38,135.71,93.4,135.72,93.41z"/>
	<path class="st1" d="M126.68,134.92c-0.84-0.16-0.96,0.28-0.72,0.68c0.24,0.4,1.96,1.74,2.37,2.13c0.53,0.5,1.64,1.23,1.29,2.13
		c-0.53,1.33-2.41,2.49-3.33,2.69c-0.92,0.2-4.02,0.76-6.06-1.65c-2.32-2.72-1.33-5.06-1.25-5.34c0.08-0.28,0.2-1.16-0.8-0.96
		c-3.27,0.66-6.54,2.73-6.46,4.22c0.04,0.76,0.09,1.75,3.13,4.46c3.54,3.15,13.09,1.37,15.18,0.72c2.09-0.64,2.69-0.72,3.33-0.68
		c0.64,0.04,1.52,0.32,2.01,0.32c0.48,0,0.76,0.04,0.52-1.33C134.85,136.46,127.52,135.08,126.68,134.92z"/>
	<path class="st1" d="M185.4,134.27c-1.53,0.08-1.1,0.48-0.92,1.13c0.17,0.64,2.01,1.81,2.93,2.45c0.92,0.64,1.61,1.09,0.68,2.61
		c-0.92,1.53-4.26,3.33-7.43,1.69c-3.17-1.65-3.09-4.98-3.09-5.54c0-0.56-0.04-1.33-1.33-0.68c-6.37,3.89-6.37,7.44-6.01,7.65
		c0.46,0.31,0.62,0.1,1.92-0.18c0.71-0.13,1.17-0.2,2.09-0.04c0.92,0.16,3.53,0.88,4.7,1.17c1.17,0.28,5.34,1.16,9.08,0.36
		c3.74-0.8,5.42-3.65,6.07-4.58c0.64-0.92,0.76-1.61,0-2.57C192.09,135.23,186.92,134.19,185.4,134.27z"/>
</g>
<path d="M224.84,78.95c-0.17,0-0.6,0.12-0.65,0.13c-19.37,4.56-48.5,19.12-49.89,19.67c-0.01-0.01-0.01-0.02-0.01-0.03
	c-0.12,0.03-0.24,0.02-0.32-0.08c-0.09-0.12-0.07-0.29,0.04-0.39c0.01-0.01,0.01-0.02,0.02-0.03c0,0,0.01,0,0.02,0
	c0.01,0,0.01,0,0.02-0.01c0.08-0.06,0.12-0.1,0.21-0.16c17.43-11.21,33.55-18.5,35.24-19.22c1.69-0.72,1.73-1.05,1.89-1.85
	c0.16-0.8,2.97-14.98,3.15-15.84l0.01-0.03c0-0.03,0.01-0.06,0.01-0.09c0-0.29-0.24-0.53-0.53-0.53c-0.09,0-0.17,0.02-0.24,0.06
	l-0.03,0.01c-25.18,16.27-41.4,31.37-42.91,32.63c-0.1,0.08-0.16,0.12-0.24,0.18c0,0,0,0,0,0c0,0,0,0,0,0
	c-0.02,0.01-0.03,0.02-0.05,0.04c-0.01-0.01-0.01-0.01-0.02-0.02c-0.09,0.03-0.19,0.02-0.25-0.06c-0.05-0.07-0.05-0.15-0.01-0.23
	c-0.01-0.01-0.01-0.01-0.02-0.02c0.07-0.12,0.14-0.22,0.14-0.22c5.54-8.15,20.63-22.3,21.84-23.26c1.21-0.96,1.85-1.81,1.93-2.69
	c0.08-0.88,2.57-17.47,2.73-18.8c0.01-0.11,0.02-0.21,0.02-0.29l0-0.02c0-0.3-0.24-0.53-0.54-0.53c-0.12,0-0.23,0.04-0.32,0.11l0,0
	c-0.13,0.1-0.27,0.23-0.41,0.38c-13.66,15.18-28.08,39.8-29.24,41.45c-0.12,0.17-0.21,0.29-0.31,0.42c-0.01,0-0.01-0.01-0.02-0.01
	c-0.05,0.07-0.12,0.12-0.21,0.12c-0.15,0-0.28-0.13-0.28-0.28c0-0.04,0.03-0.08,0.05-0.11c0,0-0.01,0-0.01-0.01
	c0.05-0.15,0.11-0.31,0.19-0.49c0.6-1.48,9.96-21.57,10.36-22.37c0.4-0.8,0.84-1.81,0.92-2.93c0.08-1.12,1.7-22.71,1.7-22.71
	c0-0.21-0.17-0.38-0.38-0.38c-0.16,0-0.3,0.1-0.35,0.23c0,0-17.07,44.52-17.36,45.41c-0.08,0.26-0.19,0.54-0.31,0.8
	c-0.01,0-0.02-0.01-0.03-0.01c-0.06,0.18-0.2,0.32-0.4,0.32c-0.25,0-0.45-0.2-0.45-0.45c0-0.04,0.03-0.06,0.04-0.1
	c-0.01,0-0.02,0-0.03-0.01c0.28-1.9,2.73-18.39,2.73-19.49c0-1.13,0.68-28.64,0.68-28.64c0-0.21-0.17-0.39-0.39-0.39
	c-0.18,0-0.34,0.13-0.38,0.3c0,0-7.48,41.77-8.43,47.35c0,0-0.01,0-0.01,0c-0.02,0.33-0.27,0.58-0.59,0.6
	c-0.32-0.03-0.58-0.28-0.59-0.6c0,0-0.01,0-0.01,0c-0.96-5.58-8.43-47.35-8.43-47.35c-0.04-0.17-0.19-0.3-0.38-0.3
	c-0.21,0-0.39,0.17-0.39,0.39c0,0,0.68,27.51,0.68,28.64c0,1.09,2.46,17.59,2.73,19.49c-0.01,0-0.02,0-0.03,0.01
	c0.01,0.03,0.04,0.06,0.04,0.1c0,0.25-0.2,0.45-0.45,0.45c-0.2,0-0.34-0.14-0.4-0.32c-0.01,0-0.02,0.01-0.03,0.01
	c-0.11-0.27-0.22-0.54-0.31-0.8c-0.28-0.88-17.36-45.41-17.36-45.41c-0.06-0.14-0.19-0.23-0.35-0.23c-0.21,0-0.38,0.17-0.38,0.38
	c0,0,1.62,21.59,1.7,22.71c0.08,1.13,0.52,2.13,0.92,2.93c0.4,0.8,9.76,20.89,10.36,22.37c0.07,0.18,0.13,0.34,0.19,0.49
	c0,0-0.01,0-0.01,0.01c0.02,0.04,0.05,0.07,0.05,0.11c0,0.15-0.13,0.28-0.28,0.28c-0.09,0-0.16-0.05-0.21-0.12
	c-0.01,0-0.01,0.01-0.02,0.01c-0.09-0.12-0.19-0.25-0.31-0.42c-1.16-1.65-15.59-26.27-29.24-41.45c-0.14-0.15-0.28-0.29-0.41-0.38
	l0,0c-0.09-0.07-0.2-0.11-0.32-0.11c-0.3,0-0.54,0.24-0.54,0.53l0,0.02c0,0.09,0.01,0.19,0.02,0.29c0.16,1.33,2.65,17.91,2.73,18.8
	c0.08,0.88,0.72,1.73,1.93,2.69c1.21,0.96,16.3,15.11,21.84,23.26c0,0,0.06,0.09,0.14,0.22c-0.01,0.01-0.01,0.01-0.02,0.02
	c0.04,0.07,0.04,0.16-0.01,0.23c-0.06,0.08-0.16,0.09-0.25,0.06c-0.01,0.01-0.01,0.01-0.02,0.02c-0.01-0.01-0.03-0.02-0.05-0.04
	c0,0,0,0,0,0c0,0,0,0,0,0c-0.08-0.06-0.14-0.1-0.24-0.18c-1.51-1.26-17.73-16.36-42.91-32.63l-0.03-0.01
	c-0.07-0.04-0.15-0.06-0.24-0.06c-0.29,0-0.53,0.24-0.53,0.53c0,0.03,0,0.06,0.01,0.09l0.01,0.03c0.18,0.86,2.99,15.04,3.15,15.84
	c0.16,0.8,0.2,1.12,1.89,1.85c1.69,0.72,17.81,8.02,35.24,19.22c0.09,0.06,0.13,0.1,0.21,0.16c0.01,0,0.01,0,0.02,0.01
	c0,0,0.01,0,0.02,0c0.01,0.01,0.01,0.02,0.02,0.03c0.11,0.11,0.13,0.27,0.04,0.39c-0.08,0.1-0.2,0.12-0.32,0.08
	c-0.01,0.01-0.01,0.02-0.01,0.03c-1.39-0.55-30.52-15.11-49.89-19.67c-0.05-0.01-0.48-0.13-0.65-0.13c-0.6,0-1.09,0.49-1.09,1.09
	c0,0.84,11.94,70.86,11.94,70.86c0.24,1.61,0.33,2.51,1.69,2.85c1.31,0.33,31.18,7.53,51.73,25.14c1.62,1.39,4.49,2.85,7.29,2.85
	h0.29c2.79,0,5.67-1.47,7.29-2.85c20.55-17.61,50.43-24.81,51.73-25.14c1.35-0.35,1.45-1.25,1.69-2.85c0,0,11.94-70.02,11.94-70.86
	C225.93,79.43,225.44,78.95,224.84,78.95z M135.35,143.63c-0.48,0-1.37-0.28-2.01-0.32c-0.64-0.04-1.25,0.04-3.33,0.68
	c-2.09,0.64-11.64,2.43-15.18-0.72c-3.04-2.7-3.09-3.69-3.13-4.46c-0.08-1.48,3.2-3.56,6.46-4.22c1-0.2,0.88,0.68,0.8,0.96
	c-0.08,0.28-1.07,2.62,1.25,5.34c2.05,2.41,5.14,1.85,6.06,1.65c0.92-0.2,2.81-1.37,3.33-2.69c0.36-0.9-0.75-1.62-1.29-2.13
	c-0.41-0.39-2.13-1.73-2.37-2.13c-0.24-0.4-0.12-0.84,0.72-0.68c0.84,0.16,8.17,1.54,9.2,7.39
	C136.11,143.67,135.83,143.63,135.35,143.63z M194.07,140.29c-0.64,0.92-2.33,3.77-6.07,4.58c-3.73,0.8-7.91-0.08-9.08-0.36
	c-1.16-0.28-3.77-1-4.7-1.17c-0.92-0.16-1.38-0.09-2.09,0.04c-1.3,0.28-1.45,0.49-1.92,0.18c-0.36-0.21-0.36-3.76,6.01-7.65
	c1.29-0.64,1.33,0.12,1.33,0.68c0,0.56-0.08,3.9,3.09,5.54c3.17,1.65,6.51-0.16,7.43-1.69c0.92-1.53,0.24-1.97-0.68-2.61
	c-0.92-0.64-2.76-1.81-2.93-2.45c-0.17-0.64-0.6-1.04,0.92-1.13c1.53-0.08,6.7,0.96,8.68,3.45
	C194.83,138.69,194.71,139.37,194.07,140.29z"/>
</svg>
